<?xml version="1.0" encoding="utf-8"?>
<!-- Generator: Adobe Illustrator 16.0.0, SVG Export Plug-In . SVG Version: 6.00 Build 0)  -->
<!DOCTYPE svg PUBLIC "-//W3C//DTD SVG 1.1//EN" "http://www.w3.org/Graphics/SVG/1.1/DTD/svg11.dtd">
<svg version="1.1" id="Layer_1" xmlns="http://www.w3.org/2000/svg" xmlns:xlink="http://www.w3.org/1999/xlink" x="0px" y="0px"
	 width="16px" height="16px" viewBox="0 0 16 16" enable-background="new 0 0 16 16" xml:space="preserve">
<g>
	<path fill="#B0E099" d="M14.911,3.216l-3.839,8.233l-0.721,1.547c-0.095,0.205-0.262,0.346-0.452,0.392
		c-0.189,0.046-0.402-0.004-0.581-0.144l-1.345-1.05L4.393,9.398C4.215,9.26,4.082,9.04,4.024,8.801
		c-0.057-0.238-0.039-0.495,0.057-0.7l0.721-1.547C4.897,6.35,5.064,6.208,5.254,6.163c0.19-0.045,0.403,0.004,0.581,0.143
		l2.911,2.28l3.475-7.47c0.096-0.205,0.263-0.346,0.452-0.391c0.19-0.046,0.403,0.004,0.581,0.143l1.345,1.05
		c0.179,0.139,0.312,0.359,0.369,0.598S15.006,3.011,14.911,3.216z"/>
</g>
</svg>
