<?xml version="1.0" encoding="utf-8"?>
<!-- Generator: Adobe Illustrator 16.0.0, SVG Export Plug-In . SVG Version: 6.00 Build 0)  -->
<!DOCTYPE svg PUBLIC "-//W3C//DTD SVG 1.1//EN" "http://www.w3.org/Graphics/SVG/1.1/DTD/svg11.dtd">
<svg version="1.1" id="Layer_1" xmlns="http://www.w3.org/2000/svg" xmlns:xlink="http://www.w3.org/1999/xlink" x="0px" y="0px"
	 width="16px" height="16px" viewBox="0 0 16 16" enable-background="new 0 0 16 16" xml:space="preserve">
<path fill="#FF403C" d="M56.434,2.7l-2.7-2.7c0,0-1.6,1.5-3.7,4c-2.1-2.5-3.699-4-3.699-4l-2.7,2.7c0,0,1.899,1.3,4.601,3.7
	c-1.601,2.3-3.301,5.2-4.601,8.5c2.2-2.7,4.399-5,6.399-6.9c2,1.9,4.2,4.2,6.4,6.9c-1.3-3.301-3-6.2-4.6-8.601
	C54.534,4,56.434,2.7,56.434,2.7z"/>
<g>
	<rect x="3.211" y="-3.934" fill="none" width="18.244" height="18.934"/>
	<text transform="matrix(1 0 0 1 3.2109 12.0664)" fill="#E56E6E" font-family="'FontAwesome'" font-size="16"></text>
</g>
</svg>
